<?xml version="1.0" standalone="no"?>
<!DOCTYPE svg PUBLIC "-//W3C//DTD SVG 20010904//EN"
 "http://www.w3.org/TR/2001/REC-SVG-20010904/DTD/svg10.dtd">
<svg version="1.0" xmlns="http://www.w3.org/2000/svg"
 width="450.000000pt" height="450.000000pt" viewBox="0 0 450.000000 450.000000"
 preserveAspectRatio="xMidYMid meet">
<metadata>
Created by potrace 1.11, written by Peter Selinger 2001-2013
</metadata>
<g transform="translate(0.000000,450.000000) scale(0.100000,-0.100000)"
fill="#000000" stroke="none">
<path d="M0 2250 l0 -2250 1565 0 c1499 0 1565 1 1565 18 0 73 -220 588 -286
670 l-19 23 -203 -75 c-111 -42 -215 -76 -230 -76 -77 0 -115 109 -58 166 21
21 209 110 292 138 37 12 69 27 71 32 1 5 -45 74 -102 154 -58 80 -146 202
-196 271 -49 70 -95 132 -102 137 -9 8 -40 -2 -112 -35 -54 -25 -232 -89 -394
-143 -163 -53 -341 -116 -396 -138 -153 -62 -516 -200 -645 -244 -103 -35
-119 -38 -152 -28 -43 12 -58 34 -58 82 0 49 37 80 168 138 175 77 640 253
1087 410 83 29 153 56 157 59 5 4 -61 15 -145 25 -294 34 -498 89 -682 184
-176 91 -335 235 -421 382 -91 155 -122 286 -104 444 25 220 108 414 253 589
51 62 212 195 273 227 27 14 60 33 73 42 20 15 21 19 7 24 -9 3 -24 4 -34 2
-15 -4 -18 1 -18 31 1 20 5 42 9 49 5 6 4 12 -2 12 -5 0 -13 -4 -16 -10 -3 -5
-12 -10 -18 -9 -9 0 -9 2 1 6 6 2 12 14 12 24 0 13 4 18 12 13 7 -4 8 -3 4 5
-4 6 -11 9 -15 6 -17 -10 -47 30 -45 58 3 25 1 26 -19 15 -21 -11 -21 -10 -7
7 14 17 13 18 -3 12 -16 -6 -16 -4 3 23 18 26 19 30 5 30 -9 0 -14 -4 -10 -9
3 -6 -1 -13 -8 -18 -8 -4 -17 -15 -21 -23 -3 -8 -4 -3 -1 12 3 16 -1 32 -9 41
-8 8 -13 23 -10 33 3 13 -6 26 -28 42 -18 12 -27 22 -21 22 7 0 10 7 7 15 -4
8 -10 12 -15 9 -5 -3 -9 2 -9 10 0 9 -5 16 -11 16 -6 0 -9 7 -6 15 4 8 2 17
-4 21 -6 3 -8 12 -5 20 3 7 -1 19 -7 26 -7 7 -16 22 -20 32 -6 16 -5 17 8 6
12 -10 15 -10 15 3 0 9 -7 14 -17 12 -10 -1 -17 -9 -15 -16 1 -9 -3 -8 -11 3
-8 10 -17 15 -20 11 -4 -3 -7 -1 -7 6 0 7 7 11 15 8 8 -4 17 -2 20 4 4 5 3 9
-2 8 -19 -3 -34 2 -29 10 8 13 -43 44 -60 37 -9 -3 -12 -1 -9 4 3 6 13 10 21
10 8 0 13 4 10 9 -4 5 -2 11 4 13 13 4 -3 29 -21 31 -8 2 -20 6 -26 10 -16 10
-17 -5 -2 -20 8 -8 7 -13 -2 -18 -7 -5 -10 -4 -6 2 4 6 0 16 -8 23 -13 11 -13
15 5 30 22 19 15 37 -8 18 -22 -19 -38 -17 -38 3 0 11 4 19 8 19 4 0 8 -8 8
-17 0 -15 2 -14 15 3 17 22 20 54 5 54 -5 0 -10 7 -10 16 0 8 -4 12 -10 9 -5
-3 -10 -1 -10 4 0 6 7 11 16 11 8 0 12 5 9 10 -4 6 -11 8 -16 5 -11 -7 -44 23
-36 32 10 9 -13 44 -24 38 -5 -4 -9 -3 -8 2 4 21 -3 24 -18 6 -10 -10 -14 -13
-9 -6 8 12 2 17 -17 14 -5 -1 -6 3 -2 9 4 6 12 10 18 9 40 -5 50 19 21 49 -15
15 -17 15 -29 -1 -12 -16 -13 -16 -19 -1 -5 13 -9 14 -21 4 -10 -9 -15 -9 -15
-1 0 8 -81 11 -285 11 l-285 0 0 -2250z m655 2210 c3 -5 -1 -10 -10 -10 -9 0
-13 5 -10 10 3 6 8 10 10 10 2 0 7 -4 10 -10z m29 -79 c8 -12 -14 -19 -37 -13
-15 4 -16 7 -5 13 17 11 35 11 42 0z m64 -125 c3 -11 -1 -17 -9 -14 -7 2 -13
12 -15 22 -3 23 20 15 24 -8z m142 -264 c0 -5 -7 -9 -15 -9 -8 0 -12 4 -9 9 3
4 9 8 15 8 5 0 9 -4 9 -8z m30 -26 c0 -3 -4 -8 -10 -11 -5 -3 -10 -1 -10 4 0
6 5 11 10 11 6 0 10 -2 10 -4z m90 -177 c0 -6 -4 -7 -10 -4 -5 3 -10 11 -10
16 0 6 5 7 10 4 6 -3 10 -11 10 -16z m90 -185 c0 -8 -5 -12 -10 -9 -6 4 -8 11
-5 16 9 14 15 11 15 -7z m17 -26 c-3 -8 -6 -5 -6 6 -1 11 2 17 5 13 3 -3 4
-12 1 -19z m23 -48 c0 -5 -5 -10 -11 -10 -5 0 -7 5 -4 10 3 6 8 10 11 10 2 0
4 -4 4 -10z"/>
<path d="M770 4251 c0 -6 4 -13 10 -16 6 -3 7 1 4 9 -7 18 -14 21 -14 7z"/>
<path d="M800 4200 c-23 -7 -23 -8 -3 -9 12 -1 25 4 28 9 3 6 5 10 3 9 -2 -1
-14 -5 -28 -9z"/>
<path d="M832 4122 c-6 -2 -10 -8 -6 -13 8 -13 31 -11 37 4 5 14 -7 17 -31 9z"/>
<path d="M946 3921 c-3 -5 0 -13 7 -19 10 -8 13 -6 13 9 0 20 -11 25 -20 10z"/>
<path d="M996 3865 c11 -8 14 -15 7 -15 -7 0 -13 -5 -13 -11 0 -8 5 -8 15 1
12 10 13 16 4 26 -6 8 -16 14 -22 14 -6 0 -2 -7 9 -15z"/>
<path d="M1163 3511 c1 -16 7 -21 21 -19 11 2 21 9 22 16 1 7 0 8 -3 2 -3 -7
-12 -5 -23 5 -18 16 -19 16 -17 -4z"/>
<path d="M1650 3506 c-8 -3 -49 -9 -90 -16 -127 -19 -171 -31 -280 -78 -245
-104 -445 -299 -549 -535 -63 -146 -75 -202 -75 -362 0 -134 2 -143 31 -215
42 -103 68 -145 140 -233 123 -150 313 -271 542 -347 182 -60 410 -95 710
-108 l154 -7 -94 -34 c-52 -18 -116 -41 -144 -51 -27 -10 -131 -49 -230 -86
-165 -61 -278 -103 -535 -197 -94 -34 -232 -86 -300 -112 -172 -66 -319 -135
-339 -159 -17 -21 -8 -44 21 -51 36 -9 268 74 818 291 80 31 179 67 221 79
192 58 449 150 546 195 58 28 107 50 108 50 2 0 159 -208 215 -285 20 -27 68
-93 107 -146 88 -119 165 -231 161 -234 -6 -6 -184 -76 -228 -91 -25 -8 -79
-34 -120 -57 -78 -45 -96 -71 -65 -97 19 -16 34 -12 185 43 318 117 291 109
305 90 7 -9 23 -37 36 -62 13 -25 40 -73 60 -106 19 -33 43 -80 53 -105 10
-25 26 -58 36 -75 29 -47 124 -306 134 -367 7 -38 7 -38 57 -38 l50 0 -7 38
c-27 149 -176 499 -293 687 l-50 80 27 12 c15 7 104 42 197 79 212 83 341 147
456 225 146 100 211 189 180 248 -26 47 -194 99 -416 126 -138 17 -250 36
-350 60 -38 9 -113 23 -165 31 -52 8 -125 20 -162 26 -37 6 -65 14 -63 18 3 5
36 11 73 15 156 16 451 93 615 160 260 107 435 249 516 419 93 197 102 384 27
571 -97 239 -324 428 -661 549 -97 34 -140 46 -330 87 -152 33 -205 39 -477
54 -267 15 -731 27 -758 21z m660 -96 c389 -24 536 -44 735 -101 226 -65 406
-161 542 -292 152 -146 223 -294 223 -466 0 -410 -335 -674 -1020 -802 -232
-43 -296 -49 -542 -49 -276 0 -431 11 -603 41 -438 78 -751 303 -862 622 -23
65 -25 83 -20 182 5 121 23 183 102 350 37 80 52 100 136 180 115 109 180 159
290 225 134 80 197 96 449 109 118 7 226 14 240 16 26 3 36 2 330 -15z m290
-1905 c63 -13 138 -27 165 -30 28 -4 142 -22 255 -41 113 -18 276 -43 363 -54
157 -20 290 -45 309 -56 24 -15 -136 -141 -265 -209 -49 -26 -121 -60 -160
-77 -79 -33 -344 -128 -366 -131 -8 -1 -32 28 -55 66 -137 225 -262 407 -355
517 -31 36 -39 51 -26 46 11 -4 72 -18 135 -31z"/>
<path d="M3305 2954 c-18 -18 -17 -34 10 -264 7 -63 17 -185 20 -270 8 -175
23 -233 59 -228 31 4 45 57 45 178 1 141 -15 388 -30 480 -17 102 -61 146
-104 104z"/>
<path d="M1009 2878 c-20 -40 -21 -48 -10 -135 6 -50 11 -180 11 -287 0 -188
1 -196 22 -216 24 -22 28 -23 45 -12 30 19 33 66 27 361 -4 163 -11 304 -16
314 -5 9 -20 17 -33 17 -19 0 -30 -10 -46 -42z"/>
<path d="M2737 2903 c-13 -12 -7 -41 33 -170 59 -190 72 -267 60 -371 -24
-217 -127 -370 -290 -434 -85 -33 -284 -37 -405 -9 -295 71 -473 282 -591 703
-54 192 -61 206 -92 189 -18 -10 -22 -21 -22 -59 1 -111 64 -323 140 -472 158
-305 393 -460 726 -477 305 -16 501 112 594 387 16 48 23 98 27 190 5 109 2
141 -21 255 -15 71 -36 149 -47 174 -10 24 -19 49 -19 56 0 31 -72 60 -93 38z"/>
<path d="M2596 1438 c5 -7 38 -53 74 -103 70 -95 214 -318 225 -347 9 -23 26
-23 86 3 l50 22 -27 28 c-15 16 -24 29 -18 29 5 0 2 6 -7 13 -9 7 -23 26 -32
42 -44 81 -42 76 -25 89 16 12 102 7 391 -24 l109 -11 62 35 c73 41 113 72
105 80 -3 4 -111 22 -240 41 -129 19 -344 53 -479 75 -272 44 -285 46 -274 28z"/>
<path d="M3875 2929 c87 -164 114 -345 82 -534 -24 -136 -92 -267 -194 -371
-96 -99 -170 -149 -326 -224 -141 -67 -204 -89 -380 -135 -70 -18 -130 -34
-132 -37 -7 -7 216 -47 336 -60 101 -10 108 -10 135 9 16 11 58 35 94 52 93
44 186 97 245 141 11 8 64 58 117 112 79 80 104 113 141 187 67 133 91 249 84
404 -3 67 -12 144 -21 170 -40 126 -114 254 -185 321 l-30 29 34 -64z"/>
<path d="M3860 1358 c0 -97 -71 -188 -225 -288 -131 -84 -210 -123 -428 -209
-103 -41 -187 -79 -187 -84 0 -5 22 -46 49 -91 125 -209 261 -554 261 -663 0
-22 3 -23 90 -23 50 0 90 4 90 9 0 15 -62 205 -82 251 -11 25 -53 113 -95 196
-96 194 -101 180 102 283 83 42 164 85 180 95 243 153 340 249 360 357 10 54
-12 118 -55 161 -46 47 -60 48 -60 6z"/>
</g>
</svg>
